<svg width="24" height="25" viewBox="0 0 24 25" fill="none" xmlns="http://www.w3.org/2000/svg">
<path fill-rule="evenodd" clip-rule="evenodd" d="M16 4.13159H8C5.23858 4.13159 3 6.37017 3 9.13159V17.1316C3 19.893 5.23858 22.1316 8 22.1316H16C18.7614 22.1316 21 19.893 21 17.1316V9.13159C21 6.37017 18.7614 4.13159 16 4.13159ZM19.25 17.1316C19.2445 18.9242 17.7926 20.3761 16 20.3816H8C6.20735 20.3761 4.75549 18.9242 4.75 17.1316V9.13159C4.75549 7.33894 6.20735 5.88708 8 5.88159H16C17.7926 5.88708 19.2445 7.33894 19.25 9.13159V17.1316ZM16.75 9.38159C17.3023 9.38159 17.75 8.93387 17.75 8.38159C17.75 7.82931 17.3023 7.38159 16.75 7.38159C16.1977 7.38159 15.75 7.82931 15.75 8.38159C15.75 8.93387 16.1977 9.38159 16.75 9.38159ZM12 8.63159C9.51472 8.63159 7.5 10.6463 7.5 13.1316C7.5 15.6169 9.51472 17.6316 12 17.6316C14.4853 17.6316 16.5 15.6169 16.5 13.1316C16.5027 11.9373 16.0294 10.7912 15.1849 9.94667C14.3404 9.10218 13.1943 8.62893 12 8.63159ZM9.25 13.1316C9.25 14.6504 10.4812 15.8816 12 15.8816C13.5188 15.8816 14.75 14.6504 14.75 13.1316C14.75 11.6128 13.5188 10.3816 12 10.3816C10.4812 10.3816 9.25 11.6128 9.25 13.1316Z" fill="white"/>
</svg>
