<svg width="24" height="25" viewBox="0 0 24 25" fill="none" xmlns="http://www.w3.org/2000/svg">
<path d="M21.593 8.09192C21.4791 7.66933 21.2565 7.28393 20.9474 6.97409C20.6383 6.66425 20.2534 6.44078 19.831 6.32592C18.265 5.89592 12 5.88892 12 5.88892C12 5.88892 5.73602 5.88192 4.16902 6.29292C3.74695 6.41307 3.36285 6.6397 3.05359 6.95106C2.74433 7.26242 2.52031 7.64804 2.40302 8.07092C1.99002 9.63692 1.98602 12.8849 1.98602 12.8849C1.98602 12.8849 1.98202 16.1489 2.39202 17.6989C2.62202 18.5559 3.29702 19.2329 4.15502 19.4639C5.73702 19.8939 11.985 19.9009 11.985 19.9009C11.985 19.9009 18.25 19.9079 19.816 19.4979C20.2385 19.3833 20.6238 19.1603 20.9337 18.8511C21.2436 18.5419 21.4674 18.1572 21.583 17.7349C21.997 16.1699 22 12.9229 22 12.9229C22 12.9229 22.02 9.65792 21.593 8.09192ZM9.99603 15.8939L10.001 9.89392L15.208 12.8989L9.99603 15.8939Z" fill="white"/>
</svg>
